<?xml version="1.0" encoding="utf-8"?>
<!-- Generator: Adobe Illustrator 21.0.0, SVG Export Plug-In . SVG Version: 6.00 Build 0)  -->
<svg version="1.1" id="Layer_1" xmlns="http://www.w3.org/2000/svg" xmlns:xlink="http://www.w3.org/1999/xlink" x="0px" y="0px"
	 viewBox="0 0 512 512" style="enable-background:new 0 0 512 512;" xml:space="preserve">
<style type="text/css">
	.st0{fill:none;}
	.st1{fill:#AA8C67;}
	.st2{fill:#FFFFFF;}
</style>
<path class="st0" d="M34.5,157.9c3.4,11.2,8.3,22,14.5,32c3.8,6.1,8.1,12.1,10.5,18.9c1.1,3.1,1.1,7.5-1.9,8.6
	c1.8-6.4,7.7-10.5,13-14.4c12.3-9,23.6-19.4,33.6-30.9"/>
<path class="st0" d="M158.1,145.2c18.8-10.1,39.9-15.8,61.2-16.4c1.4,0,3,0,4.1,0.9c1.2,1,1.5,2.6,1.8,4.1c3,19.2,3.6,38.7,1.8,58.1
	c8,1.7,16-2,23.1-6.1c14.2-8.2,27.3-18.2,38.9-29.8"/>
<path class="st0" d="M249,89.1c-2.4-15-18.7-26.4-33.6-23.3c-12.8,2.6-22.1,13.4-29.7,24c-28,38.7-48.2,83.1-59.2,129.6
	c-4.3,18.3-7.2,37-12.8,55c-9.4,30.4-26.2,58.2-35.2,88.7c-1.1,3.7-1.9,8.1,0.5,11c1.8,2.2,4.9,2.9,7.7,3.4
	c46.1,7.8,93.2-5,136.7-22c39.7-15.5,78.6-35,109.2-64.6s52.1-70.7,50.7-113.3c-1.5-45.3-27.7-85.5-53-123.1
	c-11.8-17.5-23.5-35-35.3-52.5c-5.7-8.5-11.6-17.2-19.4-23.8s-18.2-11.1-28.3-9.7c-13.2,1.8-23.1,12.6-31.1,23.3
	c-13.9,18.5-25.6,38.6-34.8,59.8"/>
<path class="st0" d="M106.4,482.6c27.9-7,57.2-1.6,85.8,2c41.6,5.2,83.6,6.1,125.5,7.1c7.9,0.2,15.9,0.4,23.5-1.6
	c5.3-1.4,10.3-3.8,15.3-6.1c6.7-3.2,13.5-6.4,20.2-9.6c1.8-0.9,3.7-1.8,5-3.4c1.7-2.3,1.8-5.4,1.7-8.2c-0.2-12.8-0.4-25.5-0.6-38.3
	c-0.2-13.5-0.4-27.1,1.5-40.4c1.4-9.8,3.9-19.3,5.7-29c4-22.4,4-45.3,3.8-68.1c-0.2-37.3-0.4-74.6-0.6-111.8
	c-0.1-23.5-0.2-47.1-1.7-70.6c-1.1-16.9-2.9-33.7-5.7-50.4c-1.6-9.3-4.2-19.5-12.2-24.5c-7.3-4.6-16.7-3.2-25.3-2
	c-68.2,9.9-137.6,1.8-206.1-6.3c-5.2,22.8-10.4,46.4-6.1,69.4c1.5,7.9,4.1,16.1,1.6,23.8c-4.7,14.8-24,18-39.5,18.5
	c-12.5,0.4-52.6-5-61.3,5c-5.4,6.2,0.1,17.9,1.1,25.2c1.6,11.1,2.3,22.3,2,33.5c-0.6,22.9-5.4,45.4-7.5,68.1
	c-1.7,18.4-1.7,37-1.6,55.5c0.1,49.5,0.3,99,0.4,148.4c0,3.7,0,7.4,1.3,10.8c1.6,4.4,5.2,7.9,9.3,10.2c12.3,7.1,26.6,4.1,39.4,0.4
	c5.8-1.7,14.6-6.9,20.6-6.5c7.3,0.4,8,5.1,14.3,9.9"/>
<path class="st0" d="M171,489.7c46.6-0.6,93.1-8,137.7-21.7"/>
<path class="st1" d="M109,494.2H35c-6.6,0-12-5.4-12-12V127c0-6.6,5.4-12,12-12h74c6.6,0,12,5.4,12,12v355.2
	C121,488.8,115.6,494.2,109,494.2z"/>
<rect x="109.9" y="21.3" class="st1" width="275.4" height="472.9"/>
<rect x="52.3" y="30.2" transform="matrix(0.7071 0.7071 -0.7071 0.7071 100.2291 -38.7919)" class="st1" width="89.2" height="142.8"/>
<path class="st1" d="M480.5,117.3l-25.8-22.1c-5-4.3-12.6-3.7-16.9,1.3l-77.5,90.4c-4.3,5-3.7,12.6,1.3,16.9l25.8,22.1
	c5,4.3,12.6,3.7,16.9-1.3l77.5-90.4C486.1,129.2,485.5,121.5,480.5,117.3z"/>
<g>
	<g>
		<path class="st2" d="M492.9,100.4l-14.5-14.5c-16.3-16.3-42.8-16.3-59.1,0L303.8,201.3H103.6c-6.8,0-12.4,5.5-12.4,12.4
			s5.5,12.4,12.4,12.4H279l-74.4,74.4H103.6c-6.8,0-12.4,5.5-12.4,12.4s5.5,12.4,12.4,12.4H180l-0.2,0.2c-1.5,1.5-2.6,3.4-3.2,5.4
			l-19.1,68.7h-53.9c-6.8,0-12.4,5.5-12.4,12.4s5.5,12.4,12.4,12.4h63.3c0,0,2.7-0.3,3.1-0.4c0.1,0,78-21.6,78-21.6
			c2.1-0.6,3.9-1.7,5.4-3.2l239.4-239.4C509.2,143.2,509.2,116.7,492.9,100.4z M184.6,394.1l10.1-36.3L221,384L184.6,394.1z
			 M244.7,372.8L206,334l197.6-197.6l38.7,38.7L244.7,372.8z M475.4,142.1l-15.6,15.6l-38.7-38.7l15.6-15.6c6.7-6.7,17.5-6.7,24.2,0
			l14.5,14.5C482.1,124.5,482.1,135.4,475.4,142.1z"/>
	</g>
</g>
<g>
	<g>
		<path class="st2" d="M397.7,78.4c6.8,0,12.4-5.5,12.4-12.4V27c0-14.9-12.1-27-27-27H121.6c-3.3,0-6.4,1.3-8.7,3.6L10.5,106
			c-2.3,2.3-3.6,5.5-3.6,8.7V485c0,14.9,12.1,27,27,27h349.1c14.9,0,27-12.1,27-27V296.3c0-6.8-5.5-12.4-12.4-12.4
			c-6.8,0-12.4,5.5-12.4,12.4V485c0,1.3-1,2.3-2.3,2.3H33.9c-1.3,0-2.3-1-2.3-2.3V127.1H107c14.9,0,27-12.1,27-27V24.7h249.1
			c1.3,0,2.3,1,2.3,2.3v39C385.4,72.8,390.9,78.4,397.7,78.4z M109.3,100.1c0,1.3-1,2.3-2.3,2.3H49.1l60.2-60.2V100.1z"/>
	</g>
</g>
</svg>
