<?xml version="1.0" encoding="utf-8"?>
<!-- Generator: Adobe Illustrator 21.0.0, SVG Export Plug-In . SVG Version: 6.00 Build 0)  -->
<svg version="1.1" id="Layer_1" xmlns="http://www.w3.org/2000/svg" xmlns:xlink="http://www.w3.org/1999/xlink" x="0px" y="0px"
	 viewBox="0 0 512 512" style="enable-background:new 0 0 512 512;" xml:space="preserve">
<style type="text/css">
	.st0{fill:#FFFFFF;}
	.st1{fill:#AA8C67;}
</style>
<g>
	<path class="st0" d="M511.6,126.6c0-14.4-11.8-26.2-26.2-26.2c0,0,0,0,0,0l-459.2,0.6c-7,0-13.6,2.7-18.5,7.7
		c-4.9,5-7.7,11.6-7.7,18.6l0.4,258c0,7,2.7,13.6,7.7,18.5c5,4.9,11.5,7.7,18.5,7.7c0,0,0,0,0,0l459.2-0.6
		c14.5,0,26.2-11.8,26.2-26.3L511.6,126.6z"/>
	<g id="XMLID_2_">
		<g>
			<polygon class="st1" points="456.6,126.7 256,266.1 55,127.3 			"/>
		</g>
		<g>
		</g>
	</g>
	<g id="XMLID_1_">
		<g>
			<path class="st1" d="M485.4,138.6l0.3,233.1l-128.8-99.9c-5.7-4.4-14-3.4-18.4,2.3c-4.4,5.7-3.4,14,2.3,18.4l119,92.3l-408,0.6
				l119.7-92.8c5.7-4.4,6.8-12.7,2.3-18.4c-4.4-5.7-12.7-6.8-18.4-2.3l-128.9,100l-0.3-232.5l222.3,153.7c2.3,1.6,4.8,2.3,7.5,2.3
				c2.6,0,5.2-0.8,7.5-2.3L485.4,138.6z"/>
		</g>
		<g>
		</g>
	</g>
</g>
</svg>
